<svg width="92" height="20" viewBox="0 0 92 20" fill="none" xmlns="http://www.w3.org/2000/svg">
<g clip-path="url(#clip0_268_98)">
<mask id="mask0_268_98" style="mask-type:luminance" maskUnits="userSpaceOnUse" x="0" y="0" width="92" height="20">
<path d="M92 0H0V19.32H92V0Z" fill="white"/>
</mask>
<g mask="url(#mask0_268_98)">
<path d="M9.06883 4.50276C9.09588 4.16244 9.01471 3.8483 8.85238 3.56033C8.58182 3.11529 8.06776 2.82732 7.47253 2.82732C6.74203 2.82732 6.09268 3.24618 5.76801 3.8483C5.65979 4.05772 5.60568 4.26715 5.57862 4.50276L5.38923 6.54471C5.38923 6.54471 6.11974 6.5709 6.44441 6.5709C9.06883 6.5709 9.06883 4.50276 9.06883 4.50276ZM12.8837 7.90602C12.6672 7.80131 12.4508 7.74894 12.1802 7.74894H1.89904C1.52025 7.74894 1.19559 7.85366 0.897969 8.03691C0.410964 8.32488 0.0592387 8.84846 0.0051271 9.42439C-0.0489846 10.105 0.329797 10.7071 0.925023 10.969C1.11441 11.0475 1.35792 11.0998 1.60142 11.0998H5.01045L4.71284 14.3198C4.68578 14.5554 4.71284 14.7649 4.79401 14.9743C5.01045 15.5764 5.57862 15.9953 6.30913 15.9953C7.01258 15.9953 7.66193 15.6026 7.98659 15.0266C8.09481 14.8172 8.17598 14.5816 8.20303 14.346L8.50065 11.126H11.8826C12.1262 11.126 12.3697 11.0737 12.5861 10.9951C13.2354 10.7334 13.7224 10.1574 13.8036 9.45061C13.8306 8.74373 13.4519 8.16781 12.8837 7.90602ZM25.627 15.5764C24.9235 15.9953 24.0307 16.2047 22.9485 16.2047H18.8089L19.2688 11.2831H23.5708C24.7071 11.2831 25.5999 11.3616 26.114 11.7805C26.6551 12.2517 26.8445 12.8014 26.7904 13.5606C26.6821 14.5293 26.3034 15.1838 25.627 15.5764ZM19.9993 3.06293H23.2461C24.1118 3.06293 24.7882 3.27236 25.3023 3.69122C25.7893 4.0839 26.0057 4.65984 25.9516 5.41902C25.8705 6.3091 25.5458 6.96358 25.0047 7.35626C24.4365 7.77512 23.7601 7.95838 22.9755 7.95838H19.5665L19.9993 3.06293ZM27.3856 9.05789C28.8196 8.24634 29.6313 6.91121 29.7936 5.05252C29.9289 3.42943 29.4418 2.14666 28.2784 1.28277C27.1421 0.418862 25.7352 0 24.0848 0H18.6466C18.2678 0 17.9161 0.104715 17.6185 0.287967C17.429 0.392683 17.2667 0.549756 17.1314 0.70683C16.8609 1.02098 16.6986 1.3613 16.6445 1.75398L15.2105 17.5137C15.1834 17.9325 15.2917 18.3252 15.5623 18.6394C15.6705 18.7702 15.7786 18.9011 15.914 18.9797C16.1845 19.163 16.5092 19.2677 16.888 19.2677H23.3543C25.1941 19.2677 26.8174 18.8226 28.1973 17.9325C29.6042 17.0162 30.4158 15.6811 30.5782 13.9534C30.6864 12.6444 30.4429 11.5187 29.7936 10.6286C29.2524 9.92183 28.4408 9.37204 27.3856 9.05789ZM39.3984 16.1C38.6138 16.4927 37.8291 16.6759 37.0716 16.6759C36.4222 16.6759 35.8541 16.545 35.4482 16.2833C35.0695 16.0477 34.8801 15.7073 34.9341 15.2361C35.0424 13.9795 37.5044 13.5345 39.6689 13.4036L39.3984 16.1ZM38.5056 5.89024C37.2068 5.89024 35.9352 6.12586 34.6636 6.59707C33.5002 7.04211 32.8779 7.59187 32.8239 8.27252C32.7968 8.63902 32.905 8.95317 33.1215 9.18878C33.3649 9.42439 33.6625 9.5553 34.0414 9.5553C34.2037 9.5553 34.5554 9.50296 35.5835 9.11024C36.3952 8.7961 37.1798 8.61285 37.9104 8.61285C38.6679 8.61285 39.209 8.82228 39.5337 9.215C39.8043 9.58143 39.9125 10.1312 39.8584 10.8642V10.9428C37.4233 11.1522 35.6647 11.4663 34.5013 11.8852C32.6615 12.5658 31.6604 13.7178 31.4981 15.3146C31.3898 16.545 31.7686 17.5398 32.6344 18.2466C33.5002 18.9535 34.5824 19.2938 35.8811 19.2938C37.2068 19.2938 38.3973 19.0582 39.4254 18.6132C39.696 19.0582 40.183 19.2938 40.8053 19.2938C41.2652 19.2938 41.6982 19.1367 42.0769 18.8226C42.4557 18.5085 42.645 18.1158 42.6992 17.6707L43.3215 10.8904C43.4568 9.39817 43.1862 8.22016 42.4827 7.40862C41.6982 6.38764 40.3453 5.89024 38.5056 5.89024ZM52.9804 15.079C52.1416 15.9691 50.9783 16.4142 49.4632 16.4142C48.8409 16.4142 48.3268 16.388 47.921 16.3618L48.5703 9.26734C49.3008 8.95317 50.0854 8.7961 50.87 8.7961C51.8711 8.7961 52.6557 9.11024 53.251 9.7647C53.8733 10.4715 54.1168 11.414 54.0085 12.5658C53.9274 13.5868 53.5756 14.4246 52.9804 15.079ZM51.7088 5.89024C50.7348 5.89024 49.7608 6.04732 48.8138 6.36146L49.2467 1.67545C49.2737 1.41366 49.2196 1.20422 49.1385 0.994796C48.922 0.418861 48.3538 0.0261789 47.6504 0.0261789C47.0551 0.0261789 46.487 0.314146 46.1352 0.759187C45.9189 1.02098 45.7835 1.33512 45.7565 1.67545L44.3496 17.1734C44.2685 18.1943 44.7284 18.8488 45.7565 19.0582C46.5411 19.2153 47.6233 19.2677 48.9491 19.2677C51.7899 19.2677 54.0085 18.5085 55.5507 16.9901C56.7141 15.8644 57.3905 14.3722 57.5528 12.592C57.7422 10.5762 57.3093 8.95317 56.2541 7.74894C55.1719 6.51854 53.6568 5.89024 51.7088 5.89024ZM67.2118 15.079C66.373 15.9691 65.2096 16.4142 63.6945 16.4142C63.0723 16.4142 62.5582 16.388 62.1523 16.3618L62.8017 9.26734C63.5322 8.95317 64.3168 8.7961 65.1014 8.7961C66.1025 8.7961 66.8871 9.11024 67.4823 9.7647C68.1046 10.4715 68.3481 11.414 68.2399 12.5658C68.1587 13.5868 67.8069 14.4246 67.2118 15.079ZM65.9672 5.89024C64.9932 5.89024 64.0192 6.04732 63.0723 6.36146L63.5051 1.67545C63.5322 1.43984 63.5051 1.20422 63.424 0.994796C63.2075 0.418861 62.6393 0.0261789 61.9359 0.0261789C61.3406 0.0261789 60.7724 0.314146 60.4207 0.759187C60.2043 1.02098 60.069 1.33512 60.042 1.67545L58.608 17.1995C58.4998 18.2205 58.9868 18.875 60.0149 19.0844C60.7995 19.2414 61.8818 19.2938 63.2075 19.2938C66.0484 19.2938 68.2669 18.5346 69.8091 17.0162C70.9725 15.8906 71.6489 14.3984 71.8112 12.6182C72.0007 10.6024 71.5677 8.97935 70.5126 7.77512C69.4032 6.51854 67.8882 5.89024 65.9672 5.89024ZM76.6001 11.1522C76.7625 10.5239 77.06 9.97418 77.493 9.52908C78.1153 8.92699 78.9269 8.63902 79.9821 8.63902C80.9291 8.63902 81.6325 8.90082 82.1195 9.47674C82.4982 9.94796 82.6877 10.4978 82.6877 11.1522H76.6001ZM80.1985 5.89024C78.1423 5.89024 76.4107 6.51854 75.085 7.72276C73.7322 8.95317 72.9476 10.5239 72.7853 12.4088C72.5958 14.3984 73.0829 16.0477 74.1922 17.2781C75.3555 18.587 77.0872 19.2677 79.3328 19.2677C80.7938 19.2677 82.1465 19.0058 83.4181 18.5085C84.4463 18.0896 85.0144 17.5398 85.0686 16.8854C85.0957 16.5189 85.0144 16.1786 84.771 15.8906C84.4734 15.5241 84.0404 15.367 83.4452 15.4979C83.31 15.5241 83.1747 15.5764 83.0664 15.6288C82.9853 15.6811 82.8771 15.7335 82.7147 15.7858C82.5524 15.8644 82.4171 15.9167 82.2819 15.9691C81.4701 16.3094 80.6315 16.4927 79.7657 16.4927C78.5481 16.4927 77.6553 16.1262 77.033 15.367C76.6272 14.8958 76.4107 14.2937 76.3566 13.5868H84.1217C84.6627 13.5868 85.1227 13.4036 85.4744 13.0633C85.8262 12.723 86.0156 12.2779 86.0697 11.7805C86.232 10.1312 85.7991 8.74373 84.7981 7.64422C83.7158 6.49236 82.1465 5.89024 80.1985 5.89024ZM91.9948 1.64927C92.0221 1.30894 91.9408 0.994796 91.7785 0.733008C91.5079 0.287967 90.9938 0 90.3986 0C89.6681 0 89.0187 0.418862 88.6941 1.02098C88.5859 1.23041 88.5317 1.43984 88.5046 1.67545L87.0437 17.6446C87.0166 17.8802 87.0437 18.0896 87.1248 18.299C87.3413 18.9011 87.9094 19.32 88.64 19.32C89.3434 19.32 89.9927 18.9273 90.3174 18.3514C90.4256 18.1419 90.5068 17.9063 90.5339 17.6707L91.9948 1.64927Z" fill="#0B0C0D"/>
</g>
</g>
<defs>
<clipPath id="clip0_268_98">
<rect width="92" height="20" fill="white"/>
</clipPath>
</defs>
</svg>
