<svg width="76" height="28" viewBox="0 0 76 28" fill="none" xmlns="http://www.w3.org/2000/svg">
<g clip-path="url(#clip0_268_18)">
<path fill-rule="evenodd" clip-rule="evenodd" d="M0.343262 0.427856V27.0948H75.3239V0.427856H0.343262ZM67.3795 21.002C58.0685 24.8575 47.9453 26.0056 37.9385 26.0056C27.9655 26.0056 17.6993 24.9326 8.4387 21.002C5.68177 19.8369 1.33221 17.2139 1.33221 13.7611C1.33221 10.2998 5.68988 7.68495 8.4387 6.52023C17.6997 2.58963 27.9573 1.51706 37.9385 1.51706C47.9449 1.51706 58.0685 2.66514 67.3795 6.52023C70.3544 7.75236 74.3349 10.0903 74.3349 13.7611C74.3349 17.4234 70.3625 19.7699 67.3795 21.002Z" fill="#0B0C0D"/>
<path fill-rule="evenodd" clip-rule="evenodd" d="M48.4981 15.044C48.3049 14.9181 48.0958 14.826 47.8608 14.826H44.3828V15.396H48.976C49.2017 15.396 49.4116 15.3034 49.6044 15.1865V18.664H37.9803C38.1812 18.4963 38.3655 18.2868 38.3655 18.0185V9.17729C38.3655 8.90126 38.1812 8.69135 37.9803 8.52368H49.604V11.6663C49.4116 11.5409 49.2017 11.4483 48.9756 11.4483H44.3824V12.1104H47.8603C48.0954 12.1104 48.3045 12.0264 48.4977 11.8928L48.4981 15.044ZM59.6014 16.6362H57.0292L56.5176 18.1529C56.5006 18.2071 56.4921 18.2637 56.4925 18.3206C56.4925 18.4464 56.5343 18.5556 56.5932 18.6644H50.6676C50.8016 18.5305 50.8941 18.3884 50.9611 18.2118L54.1208 9.6884C54.1967 9.47892 54.2633 9.25281 54.2633 9.0348C54.2633 8.85049 54.1967 8.68282 54.1208 8.52368H63.6992C63.6241 8.69135 63.549 8.85902 63.549 9.04333C63.549 9.26944 63.6156 9.48746 63.6992 9.6884L67.1857 18.2118C67.2531 18.3965 67.3542 18.53 67.5048 18.6644H60.1048C60.1547 18.539 60.1889 18.4131 60.1889 18.2792C60.1889 18.2037 60.1799 18.1367 60.1547 18.0697L59.6014 16.6362ZM27.1356 14.9429V18.01C27.1356 18.2864 27.3118 18.4878 27.5127 18.6636H20.4984C20.6912 18.4878 20.8755 18.2864 20.8755 18.01V9.18582C20.8755 8.90126 20.6912 8.70799 20.4984 8.52368H27.5132C27.3118 8.69988 27.136 8.90083 27.136 9.18582V12.2363L29.1723 9.18582C29.2312 9.09367 29.2811 8.98488 29.2811 8.86712C29.2811 8.7498 29.2227 8.63247 29.1723 8.52368H36.095C35.7973 8.67888 35.5436 8.90661 35.3573 9.18582L32.9268 12.7141L36.2788 18.0104C36.455 18.2954 36.6978 18.5049 36.9994 18.664H28.9377C28.9961 18.5804 29.0717 18.4882 29.0717 18.388C29.0717 18.254 29.0047 18.1196 28.9377 18.0104L27.1356 14.9429ZM10.8188 8.52368H18.0009C17.7999 8.69988 17.6237 8.8923 17.6237 9.17729V18.0104C17.6237 18.2868 17.7999 18.4882 18.0009 18.664H10.8188C11.0117 18.4882 11.1875 18.2868 11.1875 18.0104V9.17729C11.1875 8.8923 11.0117 8.69988 10.8188 8.52368Z" fill="#0B0C0D"/>
<path fill-rule="evenodd" clip-rule="evenodd" d="M57.6909 14.5913H58.839L58.2443 12.9739L57.6909 14.5913Z" fill="#0B0C0D"/>
</g>
<defs>
<clipPath id="clip0_268_18">
<rect width="75" height="27.1875" fill="white" transform="translate(0.333496 0.40625)"/>
</clipPath>
</defs>
</svg>
